<?xml version="1.0" encoding="utf-8"?>
<!-- Generator: Adobe Illustrator 22.0.0, SVG Export Plug-In . SVG Version: 6.00 Build 0)  -->
<svg version="1.1" id="Layer_1" xmlns="http://www.w3.org/2000/svg" xmlns:xlink="http://www.w3.org/1999/xlink" x="0px" y="0px"
	 viewBox="0 0 575 721.4" style="enable-background:new 0 0 575 721.4;" xml:space="preserve">
<style type="text/css">
	.st0{fill:#DF7D41;}
</style>
<path class="st0" d="M0,0v496.5h575V0H0L0,0z M283.3,353.9c-26.5,14.7-50.8,20.3-67.3,22.7c-15.4-2.3-35.6-7.2-57.8-17.8
	c-27.7-13.3-48.2-30.4-61.5-43.6c13.1-11.8,31.3-25.8,54.6-37.8c24.9-12.8,47.5-19,64.6-22.1c11,0.6,23.8,2.4,37.8,6.6
	c39,11.9,65.7,36.7,80.2,52.8C322.5,326.5,305.8,341.4,283.3,353.9z M531.6,279.1c-42.8,23.8-81.8,32.8-108.6,36.5
	c-24.8-3.7-57.3-11.6-93.1-28.7c-44.8-21.4-77.6-49.1-99.1-70.3c21.1-19.1,50.5-41.7,88-60.9c40.1-20.6,76.5-30.6,104.1-35.7
	c17.8,0.9,38.5,3.8,60.9,10.7c37.3,11.4,67.6,30.2,91,48.9v70.8C562.3,260.2,547.9,270,531.6,279.1z"/>
<polygon class="st0" points="575,721.4 0,721.4 0,496.8 0,473.5 575,473.5 "/>
</svg>
