<?xml version="1.0" encoding="utf-8"?>
<!-- Generator: Adobe Illustrator 22.0.0, SVG Export Plug-In . SVG Version: 6.00 Build 0)  -->
<svg version="1.1" id="Layer_1" xmlns="http://www.w3.org/2000/svg" xmlns:xlink="http://www.w3.org/1999/xlink" x="0px" y="0px"
	 viewBox="0 0 1280.8 721.4" style="enable-background:new 0 0 1280.8 721.4;" xml:space="preserve">
<style type="text/css">
	.st0{fill:#DF7D41;}
</style>
<path class="st0" d="M0-146.9v961.3h1280.9v-961.3H0z M631.1,538.4c-59.1,28.5-113.1,39.4-150,43.9c-34.2-4.5-79.2-13.9-128.7-34.5
	c-61.8-25.7-107.3-58.9-136.9-84.5c29.2-22.9,69.8-50,121.6-73.2c55.4-24.7,105.8-36.7,143.9-42.8c24.6,1.1,53.1,4.6,84.2,12.8
	c86.9,23.1,146.3,71.1,178.6,102.2C718.5,485.3,681.2,514.2,631.1,538.4z M1184.2,393.5c-95.4,46-182.3,63.5-242,70.7
	c-55.2-7.2-127.7-22.4-207.5-55.6c-99.7-41.4-172.8-95-220.7-136.1c47.1-36.9,112.4-80.7,196.1-118c89.4-39.8,170.5-59.2,232-69.1
	c39.6,1.7,85.8,7.4,135.7,20.7c83.2,22.1,150.7,58.4,202.8,94.7v137C1252.6,356.9,1220.5,375.9,1184.2,393.5z"/>
</svg>
